<?xml version="1.0" encoding="utf-8"?>
<!-- Generator: Adobe Illustrator 28.0.0, SVG Export Plug-In . SVG Version: 6.00 Build 0)  -->
<svg version="1.1" id="Layer_1" xmlns="http://www.w3.org/2000/svg" xmlns:xlink="http://www.w3.org/1999/xlink" x="0px" y="0px"
	 viewBox="0 0 447.4 170.8" style="enable-background:new 0 0 447.4 170.8;" xml:space="preserve">
<style type="text/css">
	.st0{fill:#5D7E55;}
</style>
<g>
	<g>
		<path class="st0" d="M98.4,119.1L46.1,54.3c-1.7-2.1-1.5-5.1,0.3-7l43.5-45H69.7L16.1,59.5c-1.3,1.4-3.5,1.5-4.9,0.1
			c-1.2-1.2-1.4-3-0.4-4.4c3.4-5,5.3-11.1,5.3-22.4V2.3h-15v116.8h15V78.4l13.8-14c1.6-1.6,4.2-1.5,5.7,0.3l43.1,54.4H98.4z"/>
	</g>
	<g>
		<path class="st0" d="M146.5,73.4c-1.6,0-2.8-1.6-2.2-3.2l11.5-32c0.8-2.2,1.5-4.3,2.2-6.3c0.7-2,1.2-4.1,1.7-6.2
			c0.3-1.9,0.6-3.9,0.8-6.2c0.1-1.3,0.2-2.7,0.3-4c0.1-1.5,1.3-2.7,2.8-2.7h1.2c1.5,0,2.7,1.2,2.8,2.7c0.1,1.2,0.1,2.4,0.3,3.6
			c0.2,1.9,0.5,3.9,0.8,5.8c0.4,2.1,1,4.3,1.7,6.5c0.7,2.2,1.4,4.5,2.2,6.8l11.5,32.2c0.5,1.4-0.6,3-2.1,3H146.5z M201.5,119.1h16.8
			L175.1,2.3h-20.7l-44,116.8h16.3l10.5-29.4c0.6-1.6,2.1-2.6,3.8-2.6h46.2c1.7,0,3.2,1.1,3.8,2.7L201.5,119.1z"/>
	</g>
	<g>
		<path class="st0" d="M267.9,121.4c-8.2,0-15.5-1.4-21.8-4.1c-6.3-2.7-11.5-6.4-15.6-11.2c-4.1-4.7-7.2-10.2-9.2-16.4l14.7-6.7
			c1.4,4.8,3.6,9,6.5,12.8c2.9,3.7,6.5,6.6,10.9,8.8c4.4,2.1,9.5,3.2,15.3,3.2c8.1,0,14.5-1.8,19.1-5.3c4.6-3.6,6.9-8.3,6.9-14.3
			c0-5.1-1.8-9.3-5.3-12.4c-3.6-3.2-9-5.6-16.3-7.3l-16-3.8c-6.1-1.3-11.4-3.3-15.8-5.8c-4.4-2.6-7.8-6-10.3-10.3
			c-2.5-4.3-3.8-9.5-3.8-15.8c0-6.2,1.7-11.8,5-16.8c3.3-4.9,8-8.8,14.1-11.7c6.1-2.8,13-4.3,20.8-4.3c8,0,14.9,1.4,20.7,4.2
			c5.8,2.8,10.4,6.2,13.8,10.3c3.4,4.1,5.8,8.3,7.2,12.5l-14.2,6.5c-1.1-3.2-2.8-6.3-4.9-9.3c-2.2-2.9-5.2-5.5-9.2-7.6
			c-3.9-2.1-8.9-3.2-14.8-3.2c-4.8,0-9,0.8-12.5,2.3c-3.6,1.6-6.3,3.7-8.2,6.5c-1.9,2.8-2.8,5.9-2.8,9.5c0,4.9,1.6,8.7,4.7,11.5
			c3.1,2.8,8.1,5,14.8,6.7l16.2,3.7c10,2.3,18,6.3,23.9,11.8c5.9,5.5,8.8,12.6,8.8,21.3c0,6.8-1.7,12.8-5,18
			c-3.3,5.2-8.2,9.3-14.6,12.3C284.6,119.9,276.9,121.4,267.9,121.4"/>
	</g>
	<g>
		<rect x="328.3" y="2.3" class="st0" width="15" height="116.8"/>
	</g>
	<g>
		<g>
			<path class="st0" d="M393.7,105c-4.9,0-9.5,2.1-12.8,5.7c-2.7,2.3-4.9,0.2-4.9,0.2c-2.2-2.1-0.5-4.4-0.5-4.4l1.6-2.8
				c0,0,2.1-4.5,2.5-8c0.2-2,0.5-6.5,0.6-10.6v-5.1c0-0.1,0-0.1,0-0.2l0,0V2.3h-15v116.9h78.1V105H393.7z"/>
		</g>
	</g>
	<g>
		<path class="st0" d="M7.8,170.2c-1.8-0.1-3-0.2-3.5-0.2c-1.6,0-2.9,0-4.1,0.1L0,169c0.9-0.3,1.4-0.8,1.7-1.3
			c0.3-0.5,0.5-1.4,0.6-2.5c0.1-1,0.1-2.7,0.1-5.2v-12.2c0-2.4,0-4.1-0.1-5.2c-0.1-1.1-0.2-1.9-0.6-2.5c-0.3-0.5-0.9-1-1.7-1.3
			l0.1-1.2c1.2,0.1,2.6,0.1,4.2,0.1c0.9,0,2.2,0,3.9-0.1c1.7-0.1,3.1-0.1,4.1-0.1c2.4,0,4.6,0.4,6.7,1.1c2.1,0.7,4,1.7,5.6,3.1
			c1.6,1.3,2.9,3.1,3.9,5.2c1,2.1,1.4,4.5,1.4,7.1c0,4.9-1.6,8.8-4.8,11.8c-3.2,3-7.4,4.5-12.6,4.5C11.3,170.4,9.6,170.3,7.8,170.2z
			 M22.3,164.5c2.3-2.5,3.5-5.9,3.5-10.4c0-4.4-1.3-7.9-3.9-10.5c-2.6-2.6-5.9-3.9-9.9-3.9c-2.3,0-3.9,0.1-4.6,0.4s-1.1,0.9-1.2,1.8
			c-0.1,1-0.1,2.5-0.1,4.7v13.9c0,2.4,0,4.1,0.1,5c0.1,1.1,0.6,1.9,1.3,2.2c0.8,0.3,2.4,0.5,4.8,0.5C16.6,168.2,19.9,167,22.3,164.5
			z"/>
		<path class="st0" d="M37.9,170.1l-0.1-1.2c0.9-0.3,1.4-0.8,1.7-1.3c0.3-0.5,0.5-1.4,0.6-2.5c0.1-1,0.1-2.7,0.1-5.2v-12.2
			c0-2.4,0-4.1-0.1-5.2c-0.1-1.1-0.2-1.9-0.6-2.5c-0.3-0.5-0.9-1-1.7-1.3l0.1-1.2c1.2,0.1,2.6,0.1,4.2,0.1h8.5c2.2,0,3.9,0,5.1-0.1
			c0.3,2.3,0.5,4.5,0.6,6.6l-1.3,0.2c-0.6-1.6-1.1-2.7-1.8-3.4c-0.6-0.6-1.5-1.1-2.6-1.2c-1-0.2-2.3-0.2-4-0.2c-1.1,0-1.8,0.1-2,0.4
			c-0.3,0.3-0.5,0.9-0.5,1.8c-0.1,1-0.1,2.5-0.1,4.7v5.9c2.5,0,4.6-0.1,6.3-0.2c1-0.1,1.7-0.4,2.2-0.8s0.9-1.2,1.2-2.3l1.1,0.2
			c-0.1,1.2-0.1,2.5-0.1,4c0,1.5,0,2.8,0.1,4l-1.1,0.2c-0.3-1.1-0.7-1.8-1.2-2.3s-1.2-0.7-2.2-0.8c-1.2-0.2-3.3-0.2-6.3-0.2v6.2
			c0,1.5,0,3.2,0.1,5c0,1.1,0.3,1.8,0.7,2.1c0.4,0.4,1.2,0.5,2.3,0.5c2.2,0,3.8-0.1,4.9-0.2c1.3-0.2,2.3-0.8,3-1.8
			c0.6-0.9,1.1-2,1.6-3.5l1.2,0.2c-0.2,2.4-0.6,4.9-1.1,7.4c-2.8-0.2-7.3-0.2-13.4-0.2C40.9,170,39.1,170.1,37.9,170.1z"/>
		<path class="st0" d="M93.2,170.8l-22.7-27.4v16.7c0,2.4,0,4.1,0.1,5.2c0.1,1.1,0.3,1.9,0.6,2.4c0.3,0.5,0.9,1,1.9,1.3l-0.1,1.2
			c-1.4-0.1-2.7-0.1-3.7-0.1c-1.5,0-2.7,0-3.6,0.1l-0.1-1.2c0.9-0.4,1.5-0.8,1.8-1.3s0.5-1.3,0.6-2.5c0.1-1,0.1-2.7,0.1-5.2v-12.3
			c0-2.2,0-3.9-0.1-4.9c-0.1-1.1-0.3-2-0.7-2.6c-0.4-0.6-1-1.1-2-1.5l0.1-1.2c1.4,0.1,3.2,0.1,5.4,0.1L91.7,163v-15.1
			c0-2.4,0-4.1-0.1-5.2c-0.1-1.1-0.3-1.9-0.6-2.4c-0.3-0.5-0.9-1-1.9-1.3l0.1-1.2c1.4,0.1,2.7,0.1,3.7,0.1c1.5,0,2.7,0,3.6-0.1
			l0.1,1.2c-0.9,0.4-1.5,0.8-1.8,1.3c-0.3,0.5-0.5,1.3-0.6,2.5c-0.1,1-0.1,2.7-0.1,5.2v15.1c0,2.9,0.1,5.4,0.2,7.5L93.2,170.8z"/>
		<path class="st0" d="M124.7,137.9c2.3,0,4,0,5.2-0.1c0.1,2.2,0.1,4.4,0.1,6.7l-1.3,0.1c-0.5-1.6-1-2.7-1.7-3.4
			c-0.6-0.6-1.5-1.1-2.6-1.2c-1-0.2-2.2-0.2-3.6-0.2c-1.1,0-1.8,0.1-2,0.4s-0.5,0.9-0.5,1.8c-0.1,1-0.1,2.5-0.1,4.7v13.4
			c0,0.4,0,2.1,0.1,5.2c0.1,1.2,0.3,2,0.6,2.5c0.4,0.5,1.1,0.9,2.2,1.2l-0.1,1.2c-1.2-0.1-2.7-0.1-4.6-0.1c-1.9,0-3.5,0-4.7,0.1
			l-0.1-1.2c1.1-0.3,1.8-0.7,2.2-1.2c0.4-0.5,0.6-1.3,0.6-2.5c0.1-3,0.1-4.8,0.1-5.2v-13.4c0-2.2,0-3.8-0.1-4.7
			c-0.1-1-0.2-1.6-0.5-1.8s-1-0.4-2-0.4c-1.4,0-2.6,0.1-3.6,0.2c-1.1,0.2-2,0.6-2.6,1.2c-0.7,0.7-1.2,1.8-1.7,3.4l-1.3-0.1
			c0.2-2.9,0.3-5.1,0.5-6.7c1.2,0.1,2.9,0.1,5.2,0.1H124.7z"/>
		<path class="st0" d="M146.6,137.1l8.5,23c0.9,2.3,1.5,4,2.1,5.2c0.4,1,0.9,1.8,1.3,2.3c0.5,0.6,1.1,1,1.8,1.4l-0.1,1.2
			c-1.2-0.1-2.5-0.1-3.8-0.1c-1.9,0-3.5,0-4.6,0.1l-0.1-1.2c0.6-0.3,1.1-0.5,1.4-0.8s0.4-0.6,0.4-1c0-0.6-0.7-3-2.2-7.1l-0.4-0.9
			h-11.2l-0.3,0.9c-1.3,3.3-1.9,5.7-1.9,7c0,0.8,0.6,1.5,1.7,1.9l-0.1,1.2c-1.2-0.1-2.5-0.1-3.9-0.1c-1.2,0-2.3,0-3.4,0.1l-0.1-1.2
			c0.8-0.4,1.4-0.9,1.8-1.4s0.9-1.3,1.3-2.3c0.5-1.2,1.2-2.9,2.1-5.2l8.9-23H146.6z M140.3,157.2h9.8l-4.7-13L140.3,157.2z"/>
		<path class="st0" d="M172.2,160.5c0,2.4,0,4.1,0.1,5c0.1,1.1,0.4,1.8,0.8,2.2c0.4,0.3,1.1,0.5,2.2,0.5c2.2,0,3.8-0.1,4.7-0.2
			c1.4-0.3,2.5-1,3.2-2.1c0.6-0.9,1.2-2.1,1.7-3.7l1.3,0.2c-0.2,2.2-0.6,4.9-1.1,7.9c-3-0.2-7.6-0.2-13.6-0.2c-2.3,0-4.1,0-5.3,0.1
			l-0.1-1.2c0.9-0.3,1.4-0.8,1.7-1.3c0.3-0.5,0.5-1.4,0.6-2.5c0.1-1,0.1-2.7,0.1-5.2v-12.2c0-2.4,0-4.1-0.1-5.2
			c-0.1-1.1-0.2-1.9-0.6-2.5c-0.3-0.5-0.9-1-1.7-1.3l0.1-1.2c1.2,0.1,2.6,0.1,4.1,0.1c1.6,0,3,0,4.2-0.1l0.1,1.2
			c-0.9,0.3-1.4,0.8-1.7,1.3c-0.3,0.5-0.5,1.4-0.6,2.5c-0.1,1-0.1,2.7-0.1,5.2V160.5z"/>
		<path class="st0" d="M229.2,161.8l1.7,1.8c1.5,1.7,2.6,2.8,3.4,3.4c0.8,0.6,1.5,0.9,2.2,0.9c0.7,0,1.5-0.2,2.3-0.7l0.6,1.2
			c-0.4,0.7-1,1.2-1.7,1.7c-0.8,0.5-1.5,0.7-2.4,0.7c-1.1,0-2.2-0.3-3.1-1c-0.9-0.7-2.3-2-4.1-4.1l-0.7-0.8
			c-2.7,3.9-6.1,5.9-10.3,5.9c-3.1,0-5.6-1-7.7-2.9c-2.1-2-3.1-4.4-3.1-7.2c0-2.3,0.7-4.3,2.2-6.2c1.5-1.9,3.5-3.3,6.1-4.1
			c-1.9-2.2-2.9-4.4-2.9-6.4c0-1.8,0.7-3.4,2.1-4.7s3.1-2,5.1-2c2.1,0,3.8,0.6,5.2,1.8c1.3,1.2,2,2.8,2,4.6c0,3.1-2.2,5.4-6.7,6.8
			l8.6,9.7l1.1-1.8c0.5-0.8,1-1.7,1.4-2.7c0.4-1,0.6-1.9,0.6-2.5c0-0.4-0.1-0.7-0.4-1c-0.3-0.2-0.8-0.5-1.4-0.7l0.1-1.2
			c1.2,0.1,2.5,0.1,3.9,0.1c1.4,0,2.5,0,3.4-0.1l0.1,1.2c-0.7,0.4-1.3,0.8-1.8,1.3s-1,1.3-1.7,2.4l-2.6,4.4L229.2,161.8z
			 M225.8,163.2l-10.3-11.5c-1.7,0.8-3.1,1.9-4.2,3.3c-1,1.4-1.6,3-1.6,4.9c0,2.3,0.8,4.2,2.3,5.6c1.5,1.4,3.5,2.1,6.1,2.1
			C221.1,167.6,223.6,166.1,225.8,163.2z M215.5,145.8c0.4,0.8,1.2,1.9,2.4,3.3c3.1-1.3,4.6-3.1,4.6-5.5c0-1.3-0.4-2.3-1.1-3.1
			s-1.7-1.2-2.9-1.2c-1.1,0-2,0.4-2.7,1.1c-0.7,0.7-1.1,1.6-1.1,2.7C214.9,144,215.1,144.9,215.5,145.8z"/>
		<path class="st0" d="M278.3,170.8h-1l-12.3-28l-0.6,17.3c-0.1,1.4-0.1,2.6-0.1,3.6c0,0.7,0,1.3,0.1,1.8c0,0.4,0.1,0.9,0.3,1.5
			c0.2,0.5,0.4,1,0.8,1.3s0.8,0.6,1.4,0.8l-0.1,1.2c-1.4-0.1-2.7-0.1-3.8-0.1c-1.5,0-2.7,0-3.6,0.1l-0.1-1.2
			c0.9-0.4,1.5-0.8,1.9-1.3s0.5-1.3,0.6-2.4c0.1-0.6,0.1-1.5,0.1-2.7c0-1.2,0.1-2,0.1-2.4l0.6-12.3c0-0.7,0-1.6,0-2.6
			c0-0.9,0-1.5-0.1-2c0-0.5-0.1-1.1-0.3-1.7s-0.4-1.2-0.9-1.6s-1-0.7-1.6-0.9l0.1-1.2c1.7,0.1,4.1,0.1,7.2,0.1l11.6,26.7l10.9-26.7
			c3.6,0,6,0,7.2-0.1l0.1,1.2c-0.9,0.3-1.5,0.8-1.8,1.3c-0.3,0.5-0.5,1.4-0.6,2.5c-0.1,1.5-0.1,2.7-0.1,3.8c0,0,0,0.3,0,0.8
			s0.1,1.8,0.1,4c0.1,2.2,0.1,5.1,0.2,8.9c0.1,3,0.2,4.8,0.2,5.2c0,1.1,0.2,1.9,0.5,2.4c0.3,0.5,1,1,1.9,1.4l-0.1,1.2
			c-1.2-0.1-2.6-0.1-4.1-0.1c-1.6,0-3,0-4.2,0.1l-0.1-1.2c0.6-0.2,1-0.4,1.4-0.7c0.4-0.3,0.6-0.8,0.7-1.3c0.1-0.6,0.2-1,0.3-1.5
			c0-0.4,0-1,0-1.7c0-1.7,0-3,0-3.7l-0.4-18.3L278.3,170.8z"/>
		<path class="st0" d="M305,170.1l-0.1-1.2c0.9-0.3,1.4-0.8,1.7-1.3c0.3-0.5,0.5-1.4,0.6-2.5c0.1-1,0.1-2.7,0.1-5.2v-12.2
			c0-2.4,0-4.1-0.1-5.2c-0.1-1.1-0.2-1.9-0.6-2.5c-0.3-0.5-0.9-1-1.7-1.3l0.1-1.2c1.2,0.1,2.6,0.1,4.2,0.1h8.5c2.2,0,3.9,0,5.1-0.1
			c0.3,2.3,0.5,4.5,0.6,6.6l-1.3,0.2c-0.6-1.6-1.2-2.7-1.8-3.4c-0.6-0.6-1.5-1.1-2.6-1.2c-1-0.2-2.3-0.2-4-0.2c-1.1,0-1.8,0.1-2,0.4
			s-0.5,0.9-0.5,1.8c-0.1,1-0.1,2.5-0.1,4.7v5.9c2.5,0,4.6-0.1,6.3-0.2c1-0.1,1.7-0.4,2.2-0.8c0.4-0.4,0.9-1.2,1.2-2.3l1.1,0.2
			c-0.1,1.2-0.1,2.5-0.1,4c0,1.5,0,2.8,0.1,4l-1.1,0.2c-0.3-1.1-0.7-1.8-1.2-2.3s-1.2-0.7-2.2-0.8c-1.2-0.2-3.3-0.2-6.3-0.2v6.2
			c0,1.5,0,3.2,0.1,5c0,1.1,0.3,1.8,0.7,2.1c0.4,0.4,1.2,0.5,2.3,0.5c2.2,0,3.8-0.1,4.9-0.2c1.3-0.2,2.3-0.8,3-1.8
			c0.6-0.9,1.1-2,1.6-3.5l1.2,0.2c-0.2,2.4-0.6,4.9-1.1,7.4c-2.8-0.2-7.3-0.2-13.4-0.2C307.9,170,306.2,170.1,305,170.1z"/>
		<path class="st0" d="M340.4,170.2c-1.8-0.1-3-0.2-3.5-0.2c-1.6,0-2.9,0-4.1,0.1l-0.1-1.2c0.9-0.3,1.4-0.8,1.7-1.3
			c0.3-0.5,0.5-1.4,0.6-2.5c0.1-1,0.1-2.7,0.1-5.2v-12.2c0-2.4,0-4.1-0.1-5.2c-0.1-1.1-0.2-1.9-0.6-2.5c-0.3-0.5-0.9-1-1.7-1.3
			l0.1-1.2c1.2,0.1,2.6,0.1,4.2,0.1c0.9,0,2.2,0,3.9-0.1c1.7-0.1,3.1-0.1,4.1-0.1c2.4,0,4.6,0.4,6.7,1.1c2.1,0.7,4,1.7,5.6,3.1
			c1.6,1.3,2.9,3.1,3.9,5.2c1,2.1,1.4,4.5,1.4,7.1c0,4.9-1.6,8.8-4.8,11.8c-3.2,3-7.4,4.5-12.6,4.5
			C343.9,170.4,342.3,170.3,340.4,170.2z M355,164.5c2.3-2.5,3.5-5.9,3.5-10.4c0-4.4-1.3-7.9-3.9-10.5c-2.6-2.6-5.9-3.9-9.9-3.9
			c-2.3,0-3.9,0.1-4.6,0.4s-1.1,0.9-1.2,1.8c-0.1,1-0.1,2.5-0.1,4.7v13.9c0,2.4,0,4.1,0.1,5c0.1,1.1,0.6,1.9,1.3,2.2
			s2.4,0.5,4.8,0.5C349.3,168.2,352.6,167,355,164.5z"/>
		<path class="st0" d="M383.3,167.2c1.1-1,1.7-2.4,1.7-4c0-1.7-0.6-3.1-1.7-4.3c-1.1-1.1-2.6-2.4-4.5-3.7c-2-1.4-3.3-2.4-4-3
			c-0.7-0.6-1.4-1.3-2-2.1c-1.1-1.4-1.6-3-1.6-5c0-2.3,0.9-4.2,2.6-5.8c1.7-1.5,3.9-2.3,6.6-2.3c2.7,0,5.2,0.6,7.5,1.9
			c0.1,1.7,0.1,2.7,0.1,3.2c0,0.5,0,1.6-0.1,3.3l-1.3,0.1c-0.5-1.8-1.1-3.2-1.9-4.2c-1.2-1.4-2.8-2.1-4.7-2.1c-1.6,0-2.9,0.5-4,1.4
			c-1,0.9-1.5,2.2-1.5,3.7c0,1.5,0.5,2.8,1.6,3.9c0.8,0.8,2.2,1.9,4.4,3.5c2,1.4,3.3,2.3,4,2.9c0.7,0.6,1.4,1.2,2,1.9
			c1.4,1.7,2.2,3.6,2.2,5.8c0,2.6-0.9,4.6-2.8,6.2c-1.8,1.5-4.3,2.3-7.3,2.3c-2.9,0-5.4-0.5-7.5-1.5c-0.2-1-0.5-3.4-0.9-7.5l1.4-0.3
			c0.6,1.8,1.2,3.1,1.6,3.8c0.7,1.2,1.5,2.1,2.3,2.6s2,0.8,3.5,0.8C380.7,168.8,382.2,168.2,383.3,167.2z"/>
		<path class="st0" d="M403.1,140c-0.3,0.3-0.5,0.9-0.6,1.9c-0.1,1-0.1,2.5-0.1,4.7v13.4c0,2.4,0,4.1,0.1,5.2c0.1,1.1,0.2,2,0.6,2.5
			s0.9,0.9,1.8,1.3l-0.1,1.2c-1.2-0.1-2.6-0.1-4.1-0.1c-1.6,0-3,0-4.2,0.1l-0.1-1.2c0.9-0.3,1.4-0.8,1.7-1.3
			c0.3-0.5,0.5-1.4,0.6-2.5c0.1-1,0.1-2.7,0.1-5.2v-12.2c0-2.4,0-4.1-0.1-5.2c-0.1-1.1-0.2-1.9-0.6-2.5c-0.3-0.5-0.9-1-1.7-1.3
			l0.1-1.2c1.2,0.1,2.6,0.1,4.2,0.1c0.5,0,1.4,0,2.8,0c1.3,0,2.5,0,3.5,0c2.9,0,5.3,0.8,7.2,2.4c1.9,1.6,2.9,3.6,2.9,6.2
			c0,2.7-1,4.9-2.9,6.6s-4.5,2.5-7.5,2.5c-0.6,0-1.3-0.1-1.9-0.2l0.1-1.4c2.8,0,4.8-0.6,6.3-1.9c1.4-1.3,2.1-3,2.1-5.3
			c0-2.3-0.7-4-2.1-5.2c-1.4-1.2-3.4-1.7-5.8-1.7C404,139.6,403.4,139.7,403.1,140z"/>
		<path class="st0" d="M433.7,137.1l8.5,23c0.9,2.3,1.5,4,2.1,5.2c0.4,1,0.9,1.8,1.3,2.3s1.1,1,1.8,1.4l-0.1,1.2
			c-1.2-0.1-2.5-0.1-3.8-0.1c-1.9,0-3.5,0-4.6,0.1l-0.1-1.2c0.6-0.3,1.1-0.5,1.4-0.8s0.4-0.6,0.4-1c0-0.6-0.7-3-2.2-7.1l-0.4-0.9
			h-11.2l-0.3,0.9c-1.3,3.3-1.9,5.7-1.9,7c0,0.8,0.6,1.5,1.7,1.9l-0.1,1.2c-1.2-0.1-2.5-0.1-3.9-0.1c-1.2,0-2.3,0-3.4,0.1l-0.1-1.2
			c0.8-0.4,1.4-0.9,1.8-1.4c0.5-0.6,0.9-1.3,1.3-2.3c0.5-1.2,1.2-2.9,2.1-5.2l8.9-23H433.7z M427.5,157.2h9.8l-4.7-13L427.5,157.2z"
			/>
	</g>
</g>
</svg>
